<svg xmlns="http://www.w3.org/2000/svg" viewBox="0 0 512 512" fill="none">
  <rect width="512" height="512" rx="96" fill="#000" />
  <rect x="88" y="88" width="336" height="336" rx="48" fill="#111" stroke="#444" stroke-width="8" />
  <g fill="#fff">
    <rect x="144" y="136" width="40" height="40" />
    <rect x="192" y="136" width="40" height="40" />
    <rect x="240" y="136" width="40" height="40" />
    <rect x="288" y="136" width="40" height="40" />
    <rect x="144" y="184" width="40" height="40" />
    <rect x="288" y="184" width="40" height="40" />
    <rect x="336" y="184" width="40" height="40" fill="#aaa" />
    <rect x="144" y="232" width="40" height="40" />
    <rect x="192" y="232" width="40" height="40" />
    <rect x="240" y="232" width="40" height="40" />
    <rect x="288" y="232" width="40" height="40" />
    <rect x="144" y="280" width="40" height="40" />
    <rect x="192" y="280" width="40" height="40" />
    <rect x="288" y="280" width="40" height="40" />
    <rect x="336" y="280" width="40" height="40" fill="#555" />
    <rect x="144" y="328" width="40" height="40" />
    <rect x="192" y="328" width="40" height="40" />
    <rect x="336" y="328" width="40" height="40" />
    <rect x="384" y="328" width="40" height="40" fill="#aaa" />
  </g>
</svg>
